<?xml version="1.0" encoding="iso-8859-1"?>
<!-- Uploaded to: SVG Repo, www.svgrepo.com, Generator: SVG Repo Mixer Tools -->
<!DOCTYPE svg PUBLIC "-//W3C//DTD SVG 1.1//EN" "http://www.w3.org/Graphics/SVG/1.1/DTD/svg11.dtd">
<svg fill="#000000" version="1.1" id="Capa_1" xmlns="http://www.w3.org/2000/svg" xmlns:xlink="http://www.w3.org/1999/xlink" 
	 width="800px" height="800px" viewBox="0 0 80 80" xml:space="preserve">
<g>
	<g>
		<path d="M40,0C17.908,0,0,17.909,0,40s17.908,40,40,40s40-17.909,40-40S62.092,0,40,0z M66.416,46.898c0,1.654-1.346,3-3,3h-0.333
			v8.5c0,1.654-1.347,3-3,3H19.416c-0.72,0-1.372-0.265-1.889-0.688c-0.038,0.004-0.073,0.022-0.111,0.022
			c-0.253,0-0.507-0.096-0.701-0.287c-7.132-7.018-7.132-8.125-7.132-8.541V20.071c0-1.654,1.346-3,3-3H53.25c1.654,0,3,1.346,3,3
			v3.495h3.833c1.653,0,3,1.346,3,3v9.667h0.333c1.654,0,3,1.346,3,3V46.898z"/>
		<path d="M63.416,38.233h-1.333H55.25c-2.665,0-4.834,2.167-4.834,4.833c0,2.664,2.169,4.832,4.834,4.832h6.833h1.333
			c0.552,0,1-0.448,1-1v-7.666C64.416,38.682,63.968,38.233,63.416,38.233z M55.25,46.398c-1.838,0-3.334-1.494-3.334-3.332
			s1.496-3.333,3.334-3.333c1.837,0,3.332,1.496,3.332,3.333S57.087,46.398,55.25,46.398z"/>
		<circle cx="55.25" cy="43.065" r="1.333"/>
		<path d="M48.416,43.066c0-3.769,3.064-6.833,6.834-6.833h5.833v-9.667c0-0.551-0.448-1-1-1H19.416c-0.552,0-1,0.449-1,1v31.833
			c0,0.552,0.448,1,1,1h40.667c0.552,0,1-0.448,1-1v-8.5H55.25C51.48,49.898,48.416,46.834,48.416,43.066z M57.75,27.732
			c0-0.552,0.447-1,1-1s1,0.448,1,1v5.834c0,0.552-0.447,1-1,1s-1-0.448-1-1V27.732z"/>
		<path d="M54.25,23.566v-3.495c0-0.551-0.448-1-1-1H12.583c-0.552,0-1,0.449-1,1v31.721c0.325,0.717,2.501,3.132,4.833,5.519
			V26.566c0-1.654,1.346-3,3-3H54.25z"/>
	</g>
</g>
</svg>